<?xml version="1.0" encoding="UTF-8"?>
<svg width="400" height="400" viewBox="0 0 400 400" xmlns="http://www.w3.org/2000/svg">
  <defs>
    <linearGradient id="grad1" x1="0%" y1="0%" x2="100%" y2="100%">
      <stop offset="0%" style="stop-color:#3B82F6;stop-opacity:0.2" />
      <stop offset="100%" style="stop-color:#3B82F6;stop-opacity:0.05" />
    </linearGradient>
  </defs>
  <rect width="400" height="400" fill="#f8fafc" />
  
  <!-- Diagonal gradient -->
  <rect width="400" height="400" fill="url(#grad1)" />
  
  <!-- Diagonal lines -->
  <path d="M-50,450 L450,-50" stroke="#3B82F6" stroke-width="1" stroke-opacity="0.1" fill="none" />
  <path d="M-30,430 L430,-30" stroke="#3B82F6" stroke-width="1" stroke-opacity="0.1" fill="none" />
  <path d="M-10,410 L410,-10" stroke="#3B82F6" stroke-width="1" stroke-opacity="0.1" fill="none" />
  <path d="M10,390 L390,10" stroke="#3B82F6" stroke-width="1" stroke-opacity="0.1" fill="none" />
  <path d="M30,370 L370,30" stroke="#3B82F6" stroke-width="1" stroke-opacity="0.1" fill="none" />
  <path d="M50,350 L350,50" stroke="#3B82F6" stroke-width="1" stroke-opacity="0.1" fill="none" />
  <path d="M70,330 L330,70" stroke="#3B82F6" stroke-width="1" stroke-opacity="0.1" fill="none" />
  <path d="M90,310 L310,90" stroke="#3B82F6" stroke-width="1" stroke-opacity="0.1" fill="none" />
  <path d="M110,290 L290,110" stroke="#3B82F6" stroke-width="1" stroke-opacity="0.1" fill="none" />
  <path d="M130,270 L270,130" stroke="#3B82F6" stroke-width="1" stroke-opacity="0.1" fill="none" />
  <path d="M150,250 L250,150" stroke="#3B82F6" stroke-width="1" stroke-opacity="0.1" fill="none" />
  <path d="M170,230 L230,170" stroke="#3B82F6" stroke-width="1" stroke-opacity="0.1" fill="none" />
  <path d="M190,210 L210,190" stroke="#3B82F6" stroke-width="1" stroke-opacity="0.1" fill="none" />
  
  <!-- Corner shape -->
  <path d="M400,200 L400,400 L200,400 Z" fill="#3B82F6" fill-opacity="0.1" />
</svg>
