<?xml version="1.0" encoding="UTF-8"?>
<svg width="400" height="400" viewBox="0 0 400 400" xmlns="http://www.w3.org/2000/svg">
  <defs>
    <linearGradient id="grad1" x1="0%" y1="0%" x2="100%" y2="100%">
      <stop offset="0%" style="stop-color:#3B82F6;stop-opacity:0.2" />
      <stop offset="100%" style="stop-color:#3B82F6;stop-opacity:0.05" />
    </linearGradient>
  </defs>
  <rect width="400" height="400" fill="#f8fafc" />
  <rect x="20" y="20" width="80" height="80" rx="5" fill="url(#grad1)" />
  <rect x="120" y="20" width="80" height="80" rx="5" fill="url(#grad1)" opacity="0.7" />
  <rect x="220" y="20" width="80" height="80" rx="5" fill="url(#grad1)" />
  <rect x="320" y="20" width="60" height="80" rx="5" fill="url(#grad1)" opacity="0.7" />
  
  <rect x="20" y="120" width="80" height="80" rx="5" fill="url(#grad1)" opacity="0.7" />
  <rect x="120" y="120" width="80" height="80" rx="5" fill="url(#grad1)" />
  <rect x="220" y="120" width="80" height="80" rx="5" fill="url(#grad1)" opacity="0.7" />
  <rect x="320" y="120" width="60" height="80" rx="5" fill="url(#grad1)" />
  
  <rect x="20" y="220" width="80" height="80" rx="5" fill="url(#grad1)" />
  <rect x="120" y="220" width="80" height="80" rx="5" fill="url(#grad1)" opacity="0.7" />
  <rect x="220" y="220" width="80" height="80" rx="5" fill="url(#grad1)" />
  <rect x="320" y="220" width="60" height="80" rx="5" fill="url(#grad1)" opacity="0.7" />
  
  <rect x="20" y="320" width="80" height="60" rx="5" fill="url(#grad1)" opacity="0.7" />
  <rect x="120" y="320" width="80" height="60" rx="5" fill="url(#grad1)" />
  <rect x="220" y="320" width="80" height="60" rx="5" fill="url(#grad1)" opacity="0.7" />
  <rect x="320" y="320" width="60" height="60" rx="5" fill="url(#grad1)" />
</svg>
