<?xml version="1.0" encoding="UTF-8"?>
<svg width="400" height="400" viewBox="0 0 400 400" xmlns="http://www.w3.org/2000/svg">
  <defs>
    <linearGradient id="grad1" x1="0%" y1="0%" x2="100%" y2="100%">
      <stop offset="0%" style="stop-color:#3B82F6;stop-opacity:0.2" />
      <stop offset="100%" style="stop-color:#3B82F6;stop-opacity:0.05" />
    </linearGradient>
  </defs>
  <rect width="400" height="400" fill="#f8fafc" />
  
  <!-- Circuit lines -->
  <path d="M20,100 L380,100" stroke="#3B82F6" stroke-width="2" stroke-opacity="0.2" fill="none" />
  <path d="M20,200 L380,200" stroke="#3B82F6" stroke-width="2" stroke-opacity="0.2" fill="none" />
  <path d="M20,300 L380,300" stroke="#3B82F6" stroke-width="2" stroke-opacity="0.2" fill="none" />
  
  <path d="M100,20 L100,380" stroke="#3B82F6" stroke-width="2" stroke-opacity="0.2" fill="none" />
  <path d="M200,20 L200,380" stroke="#3B82F6" stroke-width="2" stroke-opacity="0.2" fill="none" />
  <path d="M300,20 L300,380" stroke="#3B82F6" stroke-width="2" stroke-opacity="0.2" fill="none" />
  
  <!-- Connection points -->
  <circle cx="100" cy="100" r="8" fill="url(#grad1)" stroke="#3B82F6" stroke-width="1" stroke-opacity="0.3" />
  <circle cx="200" cy="100" r="8" fill="url(#grad1)" stroke="#3B82F6" stroke-width="1" stroke-opacity="0.3" />
  <circle cx="300" cy="100" r="8" fill="url(#grad1)" stroke="#3B82F6" stroke-width="1" stroke-opacity="0.3" />
  
  <circle cx="100" cy="200" r="8" fill="url(#grad1)" stroke="#3B82F6" stroke-width="1" stroke-opacity="0.3" />
  <circle cx="200" cy="200" r="12" fill="url(#grad1)" stroke="#3B82F6" stroke-width="1" stroke-opacity="0.3" />
  <circle cx="300" cy="200" r="8" fill="url(#grad1)" stroke="#3B82F6" stroke-width="1" stroke-opacity="0.3" />
  
  <circle cx="100" cy="300" r="8" fill="url(#grad1)" stroke="#3B82F6" stroke-width="1" stroke-opacity="0.3" />
  <circle cx="200" cy="300" r="8" fill="url(#grad1)" stroke="#3B82F6" stroke-width="1" stroke-opacity="0.3" />
  <circle cx="300" cy="300" r="8" fill="url(#grad1)" stroke="#3B82F6" stroke-width="1" stroke-opacity="0.3" />
  
  <!-- Diagonal connections -->
  <path d="M100,100 L200,200" stroke="#3B82F6" stroke-width="2" stroke-opacity="0.2" fill="none" />
  <path d="M200,200 L300,300" stroke="#3B82F6" stroke-width="2" stroke-opacity="0.2" fill="none" />
  <path d="M300,100 L200,200" stroke="#3B82F6" stroke-width="2" stroke-opacity="0.2" fill="none" />
  <path d="M200,200 L100,300" stroke="#3B82F6" stroke-width="2" stroke-opacity="0.2" fill="none" />
</svg>
