<?xml version="1.0" encoding="UTF-8"?>
<svg width="400" height="400" viewBox="0 0 400 400" xmlns="http://www.w3.org/2000/svg">
  <defs>
    <linearGradient id="grad1" x1="0%" y1="0%" x2="100%" y2="100%">
      <stop offset="0%" style="stop-color:#3B82F6;stop-opacity:0.2" />
      <stop offset="100%" style="stop-color:#3B82F6;stop-opacity:0.05" />
    </linearGradient>
  </defs>
  <rect width="400" height="400" fill="#f8fafc" />
  <path d="M0,300 C100,250 150,350 250,300 C350,250 400,300 400,300 L400,400 L0,400 Z" fill="url(#grad1)" />
  <path d="M0,320 C80,280 180,360 280,300 C380,240 400,280 400,280 L400,400 L0,400 Z" fill="url(#grad1)" opacity="0.7" />
  <path d="M0,340 C60,310 160,370 260,320 C360,270 400,320 400,320 L400,400 L0,400 Z" fill="url(#grad1)" opacity="0.5" />
</svg>
